ISO-10303-21;
HEADER;
FILE_DESCRIPTION(('ViewDefinition [CoordinationView]'),'2;1');
FILE_NAME('','2026-09-21T21:25:34',(''),(''),'IfcOpenShell 0.8.5-1c5b825','IfcOpenShell 0.8.5-1c5b825','');
FILE_SCHEMA(('IFC2X3'));
ENDSEC;
DATA;
#1=IFCTELECOMADDRESS($,$,$,$,$,$,('hans.martin.eikerol@vavisjon.no'),$);
#2=IFCPERSON($,'Eikerol','Hans',('Martin'),$,$,$,(#1));
#3=IFCORGANIZATION($,'','',$,$);
#4=IFCPERSONANDORGANIZATION(#2,#3,$);
#5=IFCORGANIZATION($,'Autodesk Revit 2019 (ENU)',$,$,$);
#6=IFCAPPLICATION(#5,'2019','Autodesk Revit 2019 (ENU)','Revit');
#7=IFCOWNERHISTORY(#4,#6,$,.NOCHANGE.,$,$,$,1556267234);
#8=IFCCARTESIANPOINT((0.,0.,0.));
#9=IFCAXIS2PLACEMENT3D(#8,$,$);
#10=IFCDIRECTION((6.12303176911189E-17,1.));
#11=IFCGEOMETRICREPRESENTATIONCONTEXT($,'Model',3,0.01,#9,#10);
#12=IFCSIUNIT(*,.LENGTHUNIT.,.MILLI.,.METRE.);
#13=IFCSIUNIT(*,.AREAUNIT.,$,.SQUARE_METRE.);
#14=IFCSIUNIT(*,.VOLUMEUNIT.,$,.CUBIC_METRE.);
#15=IFCDIMENSIONALEXPONENTS(0,0,0,0,0,0,0);
#16=IFCSIUNIT(*,.PLANEANGLEUNIT.,$,.RADIAN.);
#17=IFCMEASUREWITHUNIT(IFCRATIOMEASURE(0.017453292519943299),#16);
#18=IFCCONVERSIONBASEDUNIT(#15,.PLANEANGLEUNIT.,'DEGREE',#17);
#19=IFCSIUNIT(*,.MASSUNIT.,.KILO.,.GRAM.);
#20=IFCDERIVEDUNITELEMENT(#19,1);
#21=IFCSIUNIT(*,.LENGTHUNIT.,$,.METRE.);
#22=IFCDERIVEDUNITELEMENT(#21,-3);
#23=IFCDERIVEDUNIT((#20,#22),.MASSDENSITYUNIT.,$);
#24=IFCSIUNIT(*,.TIMEUNIT.,$,.SECOND.);
#25=IFCSIUNIT(*,.FREQUENCYUNIT.,$,.HERTZ.);
#26=IFCSIUNIT(*,.THERMODYNAMICTEMPERATUREUNIT.,$,.DEGREE_CELSIUS.);
#27=IFCDERIVEDUNITELEMENT(#19,1);
#28=IFCSIUNIT(*,.THERMODYNAMICTEMPERATUREUNIT.,$,.KELVIN.);
#29=IFCDERIVEDUNITELEMENT(#28,-1);
#30=IFCDERIVEDUNITELEMENT(#24,-3);
#31=IFCDERIVEDUNIT((#27,#29,#30),.THERMALTRANSMITTANCEUNIT.,$);
#32=IFCDERIVEDUNITELEMENT(#21,3);
#33=IFCDERIVEDUNITELEMENT(#24,-1);
#34=IFCDERIVEDUNIT((#32,#33),.VOLUMETRICFLOWRATEUNIT.,$);
#35=IFCSIUNIT(*,.ELECTRICCURRENTUNIT.,$,.AMPERE.);
#36=IFCSIUNIT(*,.ELECTRICVOLTAGEUNIT.,$,.VOLT.);
#37=IFCSIUNIT(*,.POWERUNIT.,$,.WATT.);
#38=IFCSIUNIT(*,.FORCEUNIT.,.KILO.,.NEWTON.);
#39=IFCSIUNIT(*,.ILLUMINANCEUNIT.,$,.LUX.);
#40=IFCSIUNIT(*,.LUMINOUSFLUXUNIT.,$,.LUMEN.);
#41=IFCSIUNIT(*,.LUMINOUSINTENSITYUNIT.,$,.CANDELA.);
#42=IFCDERIVEDUNITELEMENT(#19,-1);
#43=IFCDERIVEDUNITELEMENT(#21,-2);
#44=IFCDERIVEDUNITELEMENT(#24,3);
#45=IFCDERIVEDUNITELEMENT(#40,1);
#46=IFCDERIVEDUNIT((#42,#43,#44,#45),.USERDEFINED.,'Luminous Efficacy');
#47=IFCDERIVEDUNITELEMENT(#21,1);
#48=IFCDERIVEDUNITELEMENT(#24,-1);
#49=IFCDERIVEDUNIT((#47,#48),.LINEARVELOCITYUNIT.,$);
#50=IFCSIUNIT(*,.PRESSUREUNIT.,$,.PASCAL.);
#51=IFCDERIVEDUNITELEMENT(#21,-2);
#52=IFCDERIVEDUNITELEMENT(#19,1);
#53=IFCDERIVEDUNITELEMENT(#24,-2);
#54=IFCDERIVEDUNIT((#51,#52,#53),.USERDEFINED.,'Friction Loss');
#55=IFCUNITASSIGNMENT((#12,#13,#14,#18,#19,#23,#24,#25,#26,#31,#34,#35,#36,#37,#38,#39,#40,#41,#46,#49,#50,#54));
#56=IFCPROJECT('2bb286$Af9iuq951kXeLkf',#7,'01-2019',$,$,'Grethes hus','Skisse',(#11),#55);
#57=IFCAXIS2PLACEMENT3D(#8,$,$);
#58=IFCLOCALPLACEMENT($,#57);
#59=IFCGEOMETRICREPRESENTATIONSUBCONTEXT('Body','Model',*,*,*,*,#11,$,.MODEL_VIEW.,$);
#60=IFCCARTESIANPOINT((3349.5792663574198,-1287.0614101409899,-3000.00002288818));
#61=IFCCARTESIANPOINT((4675.6724510192898,2344.9676216125499,-3000.00002288818));
#62=IFCCARTESIANPOINT((3697.88155288696,2436.4319515228299,-3000.00002288818));
#63=IFCPOLYLOOP((#60,#61,#62));
#64=IFCFACEOUTERBOUND(#63,.T.);
#65=IFCFACE((#64));
#66=IFCCARTESIANPOINT((5519.0718429565404,1741.89440345764,-3000.00002288818));
#67=IFCPOLYLOOP((#61,#60,#66));
#68=IFCFACEOUTERBOUND(#67,.T.);
#69=IFCFACE((#68));
#70=IFCCARTESIANPOINT((10093.559481811501,10697.5016876221,-2000.00001525879));
#71=IFCPOLYLOOP((#62,#61,#70));
#72=IFCFACEOUTERBOUND(#71,.T.);
#73=IFCFACE((#72));
#74=IFCCARTESIANPOINT((11707.4249267578,6273.9019317626999,-2000.00001525879));
#75=IFCCARTESIANPOINT((6518.3224777221703,526.82827177047704,-3000.00002288818));
#76=IFCCARTESIANPOINT((7944.6668106079096,-493.08000469207798,-3000.00002288818));
#77=IFCPOLYLOOP((#74,#75,#76));
#78=IFCFACEOUTERBOUND(#77,.T.);
#79=IFCFACE((#78));
#80=IFCCARTESIANPOINT((9850.4766448974606,-1478.3817089080801,-3000.00002288818));
#81=IFCPOLYLOOP((#80,#76,#60));
#82=IFCFACEOUTERBOUND(#81,.T.);
#83=IFCFACE((#82));
#84=IFCPOLYLOOP((#74,#66,#75));
#85=IFCFACEOUTERBOUND(#84,.T.);
#86=IFCFACE((#85));
#87=IFCPOLYLOOP((#75,#66,#60));
#88=IFCFACEOUTERBOUND(#87,.T.);
#89=IFCFACE((#88));
#90=IFCCARTESIANPOINT((13459.834240722699,5080.6026763915997,-2000.00001525879));
#91=IFCPOLYLOOP((#76,#80,#90));
#92=IFCFACEOUTERBOUND(#91,.T.);
#93=IFCFACE((#92));
#94=IFCPOLYLOOP((#76,#75,#60));
#95=IFCFACEOUTERBOUND(#94,.T.);
#96=IFCFACE((#95));
#97=IFCCARTESIANPOINT((11052.2532897949,7148.70841827393,-2000.00001525879));
#98=IFCPOLYLOOP((#61,#66,#97));
#99=IFCFACEOUTERBOUND(#98,.T.);
#100=IFCFACE((#99));
#101=IFCCARTESIANPOINT((13684.8937591553,15051.5917327881,-1000.00000762939));
#102=IFCCARTESIANPOINT((9346.3376495361299,12074.9013336182,-2000.00001525879));
#103=IFCCARTESIANPOINT((14371.3146514893,13050.3580718994,-1000.00000762939));
#104=IFCPOLYLOOP((#101,#102,#103));
#105=IFCFACEOUTERBOUND(#104,.T.);
#106=IFCFACE((#105));
#107=IFCCARTESIANPOINT((7053.7508422851597,14237.575140380901,-2000.00001525879));
#108=IFCPOLYLOOP((#102,#107,#62));
#109=IFCFACEOUTERBOUND(#108,.T.);
#110=IFCFACE((#109));
#111=IFCCARTESIANPOINT((12757.062020874,19910.2172607422,-1000.00000762939));
#112=IFCCARTESIANPOINT((4970.92216186523,16045.7601196289,-2000.00001525879));
#113=IFCPOLYLOOP((#111,#112,#107));
#114=IFCFACEOUTERBOUND(#113,.T.);
#115=IFCFACE((#114));
#116=IFCPOLYLOOP((#62,#70,#102));
#117=IFCFACEOUTERBOUND(#116,.T.);
#118=IFCFACE((#117));
#119=IFCPOLYLOOP((#102,#101,#107));
#120=IFCFACEOUTERBOUND(#119,.T.);
#121=IFCFACE((#120));
#122=IFCPOLYLOOP((#107,#112,#62));
#123=IFCFACEOUTERBOUND(#122,.T.);
#124=IFCFACE((#123));
#125=IFCCARTESIANPOINT((16730.897369384798,9552.2448486328103,-1000.00000762939));
#126=IFCPOLYLOOP((#97,#74,#125));
#127=IFCFACEOUTERBOUND(#126,.T.);
#128=IFCFACE((#127));
#129=IFCPOLYLOOP((#90,#74,#76));
#130=IFCFACEOUTERBOUND(#129,.T.);
#131=IFCFACE((#130));
#132=IFCPOLYLOOP((#102,#70,#103));
#133=IFCFACEOUTERBOUND(#132,.T.);
#134=IFCFACE((#133));
#135=IFCCARTESIANPOINT((15238.723333740199,11398.7623718262,-1000.00000762939));
#136=IFCPOLYLOOP((#97,#135,#70));
#137=IFCFACEOUTERBOUND(#136,.T.);
#138=IFCFACE((#137));
#139=IFCPOLYLOOP((#125,#74,#90));
#140=IFCFACEOUTERBOUND(#139,.T.);
#141=IFCFACE((#140));
#142=IFCPOLYLOOP((#74,#97,#66));
#143=IFCFACEOUTERBOUND(#142,.T.);
#144=IFCFACE((#143));
#145=IFCPOLYLOOP((#97,#70,#61));
#146=IFCFACEOUTERBOUND(#145,.T.);
#147=IFCFACE((#146));
#148=IFCPOLYLOOP((#101,#111,#107));
#149=IFCFACEOUTERBOUND(#148,.T.);
#150=IFCFACE((#149));
#151=IFCCARTESIANPOINT((14739.5398498535,3016.6478439331099,-2000.00001525879));
#152=IFCPOLYLOOP((#80,#151,#90));
#153=IFCFACEOUTERBOUND(#152,.T.);
#154=IFCFACE((#153));
#155=IFCCARTESIANPOINT((15337.5870666504,2641.0312362670902,-2000.00001525879));
#156=IFCCARTESIANPOINT((16266.998941039999,2409.4123798370401,-2000.00001525879));
#157=IFCPOLYLOOP((#151,#155,#156));
#158=IFCFACEOUTERBOUND(#157,.T.);
#159=IFCFACE((#158));
#160=IFCPOLYLOOP((#155,#80,#156));
#161=IFCFACEOUTERBOUND(#160,.T.);
#162=IFCFACE((#161));
#163=IFCCARTESIANPOINT((21404.502795410201,1892.04177932739,-2000.00001525879));
#164=IFCCARTESIANPOINT((22065.957769775399,1141.9877071380599,-2000.00001525879));
#165=IFCPOLYLOOP((#163,#156,#164));
#166=IFCFACEOUTERBOUND(#165,.T.);
#167=IFCFACE((#166));
#168=IFCCARTESIANPOINT((20910.4515563965,7657.0721557617198,-1000.00000762939));
#169=IFCPOLYLOOP((#168,#156,#163));
#170=IFCFACEOUTERBOUND(#169,.T.);
#171=IFCFACE((#170));
#172=IFCCARTESIANPOINT((23391.746612548799,425.125831317902,-2000.00001525879));
#173=IFCCARTESIANPOINT((23959.679388427699,222.86168746948201,-2000.00001525879));
#174=IFCCARTESIANPOINT((23100.073718261701,698.40562591552703,-2000.00001525879));
#175=IFCPOLYLOOP((#172,#173,#174));
#176=IFCFACEOUTERBOUND(#175,.T.);
#177=IFCFACE((#176));
#178=IFCPOLYLOOP((#164,#80,#172));
#179=IFCFACEOUTERBOUND(#178,.T.);
#180=IFCFACE((#179));
#181=IFCPOLYLOOP((#164,#174,#163));
#182=IFCFACEOUTERBOUND(#181,.T.);
#183=IFCFACE((#182));
#184=IFCPOLYLOOP((#174,#164,#172));
#185=IFCFACEOUTERBOUND(#184,.T.);
#186=IFCFACE((#185));
#187=IFCCARTESIANPOINT((25247.0659240723,7309.2300155639696,-1000.00000762939));
#188=IFCPOLYLOOP((#174,#187,#163));
#189=IFCFACEOUTERBOUND(#188,.T.);
#190=IFCFACE((#189));
#191=IFCPOLYLOOP((#164,#156,#80));
#192=IFCFACEOUTERBOUND(#191,.T.);
#193=IFCFACE((#192));
#194=IFCPOLYLOOP((#173,#172,#80));
#195=IFCFACEOUTERBOUND(#194,.T.);
#196=IFCFACE((#195));
#197=IFCPOLYLOOP((#187,#174,#173));
#198=IFCFACEOUTERBOUND(#197,.T.);
#199=IFCFACE((#198));
#200=IFCPOLYLOOP((#135,#103,#70));
#201=IFCFACEOUTERBOUND(#200,.T.);
#202=IFCFACE((#201));
#203=IFCCARTESIANPOINT((16629.246597289999,17423.481838989301,-500.00000381469698));
#204=IFCPOLYLOOP((#203,#135,#125));
#205=IFCFACEOUTERBOUND(#204,.T.);
#206=IFCFACE((#205));
#207=IFCPOLYLOOP((#103,#203,#101));
#208=IFCFACEOUTERBOUND(#207,.T.);
#209=IFCFACE((#208));
#210=IFCPOLYLOOP((#203,#103,#135));
#211=IFCFACEOUTERBOUND(#210,.T.);
#212=IFCFACE((#211));
#213=IFCPOLYLOOP((#97,#125,#135));
#214=IFCFACEOUTERBOUND(#213,.T.);
#215=IFCFACE((#214));
#216=IFCPOLYLOOP((#156,#90,#151));
#217=IFCFACEOUTERBOUND(#216,.T.);
#218=IFCFACE((#217));
#219=IFCPOLYLOOP((#187,#203,#168));
#220=IFCFACEOUTERBOUND(#219,.T.);
#221=IFCFACE((#220));
#222=IFCCARTESIANPOINT((18605.341094970699,8576.0515274047793,-1000.00000762939));
#223=IFCPOLYLOOP((#222,#156,#168));
#224=IFCFACEOUTERBOUND(#223,.T.);
#225=IFCFACE((#224));
#226=IFCPOLYLOOP((#168,#203,#222));
#227=IFCFACEOUTERBOUND(#226,.T.);
#228=IFCFACE((#227));
#229=IFCPOLYLOOP((#125,#90,#222));
#230=IFCFACEOUTERBOUND(#229,.T.);
#231=IFCFACE((#230));
#232=IFCPOLYLOOP((#203,#125,#222));
#233=IFCFACEOUTERBOUND(#232,.T.);
#234=IFCFACE((#233));
#235=IFCPOLYLOOP((#90,#156,#222));
#236=IFCFACEOUTERBOUND(#235,.T.);
#237=IFCFACE((#236));
#238=IFCPOLYLOOP((#163,#187,#168));
#239=IFCFACEOUTERBOUND(#238,.T.);
#240=IFCFACE((#239));
#241=IFCCARTESIANPOINT((16746.2917785645,17890.083590698199,-500.00000381469698));
#242=IFCPOLYLOOP((#203,#187,#241));
#243=IFCFACEOUTERBOUND(#242,.T.);
#244=IFCFACE((#243));
#245=IFCCARTESIANPOINT((28324.219958496102,1291.0758453369101,-2000.00001525879));
#246=IFCPOLYLOOP((#173,#245,#187));
#247=IFCFACEOUTERBOUND(#246,.T.);
#248=IFCFACE((#247));
#249=IFCPOLYLOOP((#155,#151,#80));
#250=IFCFACEOUTERBOUND(#249,.T.);
#251=IFCFACE((#250));
#252=IFCCARTESIANPOINT((31580.0584350586,-2117.8793025970499,-3000.00002288818));
#253=IFCPOLYLOOP((#80,#252,#173));
#254=IFCFACEOUTERBOUND(#253,.T.);
#255=IFCFACE((#254));
#256=IFCPOLYLOOP((#111,#101,#203));
#257=IFCFACEOUTERBOUND(#256,.T.);
#258=IFCFACE((#257));
#259=IFCCARTESIANPOINT((5574.9248291015601,22502.7962219238,-2000.00001525879));
#260=IFCCARTESIANPOINT((6320.7008193969696,23960.7188598633,-2000.00001525879));
#261=IFCCARTESIANPOINT((6413.7213043212896,25543.194360351601,-2000.00001525879));
#262=IFCPOLYLOOP((#259,#260,#261));
#263=IFCFACEOUTERBOUND(#262,.T.);
#264=IFCFACE((#263));
#265=IFCPOLYLOOP((#260,#259,#111));
#266=IFCFACEOUTERBOUND(#265,.T.);
#267=IFCFACE((#266));
#268=IFCCARTESIANPOINT((12258.9482391357,26375.852838134801,-1000.00000762939));
#269=IFCPOLYLOOP((#261,#260,#268));
#270=IFCFACEOUTERBOUND(#269,.T.);
#271=IFCFACE((#270));
#272=IFCCARTESIANPOINT((6503.2670013427696,32427.148590087902,-2000.00001525879));
#273=IFCPOLYLOOP((#272,#259,#261));
#274=IFCFACEOUTERBOUND(#273,.T.);
#275=IFCFACE((#274));
#276=IFCCARTESIANPOINT((12706.4685974121,23370.503723144499,-1000.00000762939));
#277=IFCCARTESIANPOINT((17055.8600921631,25531.0997497559,0.));
#278=IFCPOLYLOOP((#268,#276,#277));
#279=IFCFACEOUTERBOUND(#278,.T.);
#280=IFCFACE((#279));
#281=IFCPOLYLOOP((#268,#260,#276));
#282=IFCFACEOUTERBOUND(#281,.T.);
#283=IFCFACE((#282));
#284=IFCCARTESIANPOINT((6893.7053787231398,27858.455364990201,-2000.00001525879));
#285=IFCCARTESIANPOINT((12711.088082885701,28482.568432617201,-1000.00000762939));
#286=IFCPOLYLOOP((#284,#268,#285));
#287=IFCFACEOUTERBOUND(#286,.T.);
#288=IFCFACE((#287));
#289=IFCPOLYLOOP((#284,#261,#268));
#290=IFCFACEOUTERBOUND(#289,.T.);
#291=IFCFACE((#290));
#292=IFCCARTESIANPOINT((17229.376245117201,26683.357324218799,0.));
#293=IFCPOLYLOOP((#268,#292,#285));
#294=IFCFACEOUTERBOUND(#293,.T.);
#295=IFCFACE((#294));
#296=IFCPOLYLOOP((#276,#260,#111));
#297=IFCFACEOUTERBOUND(#296,.T.);
#298=IFCFACE((#297));
#299=IFCPOLYLOOP((#112,#111,#259));
#300=IFCFACEOUTERBOUND(#299,.T.);
#301=IFCFACE((#300));
#302=IFCPOLYLOOP((#272,#261,#284));
#303=IFCFACEOUTERBOUND(#302,.T.);
#304=IFCFACE((#303));
#305=IFCCARTESIANPOINT((12833.636416625999,29739.938195800802,-1000.00000762939));
#306=IFCCARTESIANPOINT((7500.3363739013703,32508.657568359398,-2000.00001525879));
#307=IFCPOLYLOOP((#305,#306,#284));
#308=IFCFACEOUTERBOUND(#307,.T.);
#309=IFCFACE((#308));
#310=IFCCARTESIANPOINT((13107.875491332999,30383.1268432617,-1000.00000762939));
#311=IFCCARTESIANPOINT((17402.892398071301,27835.614898681601,0.));
#312=IFCPOLYLOOP((#310,#305,#311));
#313=IFCFACEOUTERBOUND(#312,.T.);
#314=IFCFACE((#313));
#315=IFCPOLYLOOP((#272,#284,#306));
#316=IFCFACEOUTERBOUND(#315,.T.);
#317=IFCFACE((#316));
#318=IFCPOLYLOOP((#305,#310,#306));
#319=IFCFACEOUTERBOUND(#318,.T.);
#320=IFCFACE((#319));
#321=IFCPOLYLOOP((#284,#285,#305));
#322=IFCFACEOUTERBOUND(#321,.T.);
#323=IFCFACE((#322));
#324=IFCCARTESIANPOINT((15348.098052978499,32386.085980224601,-1000.00000762939));
#325=IFCPOLYLOOP((#310,#324,#306));
#326=IFCFACEOUTERBOUND(#325,.T.);
#327=IFCFACE((#326));
#328=IFCCARTESIANPOINT((17749.925866699199,30140.130047607399,0.));
#329=IFCPOLYLOOP((#324,#310,#328));
#330=IFCFACEOUTERBOUND(#329,.T.);
#331=IFCFACE((#330));
#332=IFCCARTESIANPOINT((16307.260437011701,32821.482659912101,-1000.00000762939));
#333=IFCCARTESIANPOINT((16658.5796905518,33257.335125732403,-1000.00000762939));
#334=IFCPOLYLOOP((#332,#333,#324));
#335=IFCFACEOUTERBOUND(#334,.T.);
#336=IFCFACE((#335));
#337=IFCCARTESIANPOINT((18288.162780761701,31140.536425781302,0.));
#338=IFCPOLYLOOP((#337,#333,#332));
#339=IFCFACEOUTERBOUND(#338,.T.);
#340=IFCFACE((#339));
#341=IFCPOLYLOOP((#324,#328,#332));
#342=IFCFACEOUTERBOUND(#341,.T.);
#343=IFCFACE((#342));
#344=IFCPOLYLOOP((#324,#333,#306));
#345=IFCFACEOUTERBOUND(#344,.T.);
#346=IFCFACE((#345));
#347=IFCPOLYLOOP((#305,#285,#311));
#348=IFCFACEOUTERBOUND(#347,.T.);
#349=IFCFACE((#348));
#350=IFCCARTESIANPOINT((17132.062417602501,21848.1873413086,0.));
#351=IFCPOLYLOOP((#276,#111,#350));
#352=IFCFACEOUTERBOUND(#351,.T.);
#353=IFCFACE((#352));
#354=IFCCARTESIANPOINT((16947.214398193399,23411.473315429699,0.));
#355=IFCPOLYLOOP((#350,#354,#276));
#356=IFCFACEOUTERBOUND(#355,.T.);
#357=IFCFACE((#356));
#358=IFCCARTESIANPOINT((26720.6945800781,26161.5333618164,0.));
#359=IFCPOLYLOOP((#350,#241,#358));
#360=IFCFACEOUTERBOUND(#359,.T.);
#361=IFCFACE((#360));
#362=IFCPOLYLOOP((#354,#277,#276));
#363=IFCFACEOUTERBOUND(#362,.T.);
#364=IFCFACE((#363));
#365=IFCCARTESIANPOINT((17415.6195281982,24757.5423156738,0.));
#366=IFCPOLYLOOP((#365,#277,#354));
#367=IFCFACEOUTERBOUND(#366,.T.);
#368=IFCFACE((#367));
#369=IFCCARTESIANPOINT((17192.5098907471,22468.389019775401,0.));
#370=IFCPOLYLOOP((#354,#350,#369));
#371=IFCFACEOUTERBOUND(#370,.T.);
#372=IFCFACE((#371));
#373=IFCPOLYLOOP((#350,#111,#241));
#374=IFCFACEOUTERBOUND(#373,.T.);
#375=IFCFACE((#374));
#376=IFCCARTESIANPOINT((17638.729165649402,27046.695611572301,0.));
#377=IFCPOLYLOOP((#376,#277,#365));
#378=IFCFACEOUTERBOUND(#377,.T.);
#379=IFCFACE((#378));
#380=IFCCARTESIANPOINT((19335.752325439498,32091.2993225098,0.));
#381=IFCPOLYLOOP((#358,#380,#376));
#382=IFCFACEOUTERBOUND(#381,.T.);
#383=IFCFACE((#382));
#384=IFCCARTESIANPOINT((17316.134902954102,27259.4849487305,0.));
#385=IFCPOLYLOOP((#292,#376,#384));
#386=IFCFACEOUTERBOUND(#385,.T.);
#387=IFCFACE((#386));
#388=IFCPOLYLOOP((#292,#277,#376));
#389=IFCFACEOUTERBOUND(#388,.T.);
#390=IFCFACE((#389));
#391=IFCPOLYLOOP((#365,#358,#376));
#392=IFCFACEOUTERBOUND(#391,.T.);
#393=IFCFACE((#392));
#394=IFCPOLYLOOP((#365,#354,#369));
#395=IFCFACEOUTERBOUND(#394,.T.);
#396=IFCFACE((#395));
#397=IFCPOLYLOOP((#358,#365,#369));
#398=IFCFACEOUTERBOUND(#397,.T.);
#399=IFCFACE((#398));
#400=IFCPOLYLOOP((#277,#292,#268));
#401=IFCFACEOUTERBOUND(#400,.T.);
#402=IFCFACE((#401));
#403=IFCPOLYLOOP((#384,#311,#285));
#404=IFCFACEOUTERBOUND(#403,.T.);
#405=IFCFACE((#404));
#406=IFCPOLYLOOP((#328,#311,#376));
#407=IFCFACEOUTERBOUND(#406,.T.);
#408=IFCFACE((#407));
#409=IFCPOLYLOOP((#328,#337,#332));
#410=IFCFACEOUTERBOUND(#409,.T.);
#411=IFCFACE((#410));
#412=IFCPOLYLOOP((#380,#337,#328));
#413=IFCFACEOUTERBOUND(#412,.T.);
#414=IFCFACE((#413));
#415=IFCPOLYLOOP((#384,#376,#311));
#416=IFCFACEOUTERBOUND(#415,.T.);
#417=IFCFACE((#416));
#418=IFCPOLYLOOP((#311,#328,#310));
#419=IFCFACEOUTERBOUND(#418,.T.);
#420=IFCFACE((#419));
#421=IFCCARTESIANPOINT((24406.293988037101,33890.701116943397,0.));
#422=IFCCARTESIANPOINT((26627.9374511719,31083.086444091801,500.00000381469698));
#423=IFCCARTESIANPOINT((26427.442712402299,31894.8671264648,500.00000381469698));
#424=IFCPOLYLOOP((#421,#422,#423));
#425=IFCFACEOUTERBOUND(#424,.T.);
#426=IFCFACE((#425));
#427=IFCPOLYLOOP((#328,#376,#380));
#428=IFCFACEOUTERBOUND(#427,.T.);
#429=IFCFACE((#428));
#430=IFCCARTESIANPOINT((19716.291888427699,33507.2989379883,-605.34001293182405));
#431=IFCPOLYLOOP((#421,#430,#380));
#432=IFCFACEOUTERBOUND(#431,.T.);
#433=IFCFACE((#432));
#434=IFCCARTESIANPOINT((26453.269042968801,32637.984558105501,500.00000381469698));
#435=IFCPOLYLOOP((#423,#434,#421));
#436=IFCFACEOUTERBOUND(#435,.T.);
#437=IFCFACE((#436));
#438=IFCPOLYLOOP((#430,#333,#380));
#439=IFCFACEOUTERBOUND(#438,.T.);
#440=IFCFACE((#439));
#441=IFCPOLYLOOP((#380,#422,#421));
#442=IFCFACEOUTERBOUND(#441,.T.);
#443=IFCFACE((#442));
#444=IFCPOLYLOOP((#380,#333,#337));
#445=IFCFACEOUTERBOUND(#444,.T.);
#446=IFCFACE((#445));
#447=IFCPOLYLOOP((#369,#350,#358));
#448=IFCFACEOUTERBOUND(#447,.T.);
#449=IFCFACE((#448));
#450=IFCPOLYLOOP((#292,#384,#285));
#451=IFCFACEOUTERBOUND(#450,.T.);
#452=IFCFACE((#451));
#453=IFCPOLYLOOP((#203,#241,#111));
#454=IFCFACEOUTERBOUND(#453,.T.);
#455=IFCFACE((#454));
#456=IFCPOLYLOOP((#358,#241,#187));
#457=IFCFACEOUTERBOUND(#456,.T.);
#458=IFCFACE((#457));
#459=IFCCARTESIANPOINT((27509.1092468262,464.56630182266201,-2000.00001525879));
#460=IFCPOLYLOOP((#459,#245,#173));
#461=IFCFACEOUTERBOUND(#460,.T.);
#462=IFCFACE((#461));
#463=IFCCARTESIANPOINT((26860.186065673799,87.078605604171798,-2000.00001525879));
#464=IFCPOLYLOOP((#459,#463,#252));
#465=IFCFACEOUTERBOUND(#464,.T.);
#466=IFCFACE((#465));
#467=IFCPOLYLOOP((#245,#459,#252));
#468=IFCFACEOUTERBOUND(#467,.T.);
#469=IFCFACE((#468));
#470=IFCCARTESIANPOINT((28841.869757080101,7346.5492492675803,-1000.00000762939));
#471=IFCPOLYLOOP((#245,#470,#187));
#472=IFCFACEOUTERBOUND(#471,.T.);
#473=IFCFACE((#472));
#474=IFCCARTESIANPOINT((32299.644744873,-1491.67697296143,-3000.00002288818));
#475=IFCPOLYLOOP((#252,#474,#245));
#476=IFCFACEOUTERBOUND(#475,.T.);
#477=IFCFACE((#476));
#478=IFCCARTESIANPOINT((35162.630456542996,27.480712687969199,-3000.00002288818));
#479=IFCPOLYLOOP((#474,#252,#478));
#480=IFCFACEOUTERBOUND(#479,.T.);
#481=IFCFACE((#480));
#482=IFCCARTESIANPOINT((32342.004949951199,3323.5247520446801,-2000.00001525879));
#483=IFCCARTESIANPOINT((33651.366888427699,-602.46409835815405,-3000.00002288818));
#484=IFCPOLYLOOP((#482,#474,#483));
#485=IFCFACEOUTERBOUND(#484,.T.);
#486=IFCFACE((#485));
#487=IFCPOLYLOOP((#478,#483,#474));
#488=IFCFACEOUTERBOUND(#487,.T.);
#489=IFCFACE((#488));
#490=IFCCARTESIANPOINT((47390.1213134766,-2583.1664543151901,-3000.00002288818));
#491=IFCPOLYLOOP((#252,#490,#478));
#492=IFCFACEOUTERBOUND(#491,.T.);
#493=IFCFACE((#492));
#494=IFCCARTESIANPOINT((30310.559179687501,3080.7831733703601,-2000.00001525879));
#495=IFCPOLYLOOP((#245,#474,#494));
#496=IFCFACEOUTERBOUND(#495,.T.);
#497=IFCFACE((#496));
#498=IFCPOLYLOOP((#463,#173,#252));
#499=IFCFACEOUTERBOUND(#498,.T.);
#500=IFCFACE((#499));
#501=IFCCARTESIANPOINT((33153.620526123101,3611.7001853942902,-2000.00001525879));
#502=IFCPOLYLOOP((#501,#483,#478));
#503=IFCFACEOUTERBOUND(#502,.T.);
#504=IFCFACE((#503));
#505=IFCPOLYLOOP((#494,#482,#470));
#506=IFCFACEOUTERBOUND(#505,.T.);
#507=IFCFACE((#506));
#508=IFCPOLYLOOP((#482,#494,#474));
#509=IFCFACEOUTERBOUND(#508,.T.);
#510=IFCFACE((#509));
#511=IFCCARTESIANPOINT((32099.326739502001,8947.0748107910204,-1000.00000762939));
#512=IFCCARTESIANPOINT((35720.568493652303,15225.9601593018,-500.00000381469698));
#513=IFCPOLYLOOP((#511,#512,#187));
#514=IFCFACEOUTERBOUND(#513,.T.);
#515=IFCFACE((#514));
#516=IFCPOLYLOOP((#511,#470,#482));
#517=IFCFACEOUTERBOUND(#516,.T.);
#518=IFCFACE((#517));
#519=IFCPOLYLOOP((#482,#501,#511));
#520=IFCFACEOUTERBOUND(#519,.T.);
#521=IFCFACE((#520));
#522=IFCPOLYLOOP((#494,#470,#245));
#523=IFCFACEOUTERBOUND(#522,.T.);
#524=IFCFACE((#523));
#525=IFCCARTESIANPOINT((34039.747833251997,4161.9506103515596,-2000.00001525879));
#526=IFCCARTESIANPOINT((33902.0841430664,9648.7587249755907,-1000.00000762939));
#527=IFCPOLYLOOP((#525,#526,#511));
#528=IFCFACEOUTERBOUND(#527,.T.);
#529=IFCFACE((#528));
#530=IFCPOLYLOOP((#525,#501,#478));
#531=IFCFACEOUTERBOUND(#530,.T.);
#532=IFCFACE((#531));
#533=IFCPOLYLOOP((#511,#526,#512));
#534=IFCFACEOUTERBOUND(#533,.T.);
#535=IFCFACE((#534));
#536=IFCCARTESIANPOINT((38682.169116210898,7593.9824020385704,-2000.00001525879));
#537=IFCCARTESIANPOINT((35508.630267334003,10430.7784332275,-1000.00000762939));
#538=IFCPOLYLOOP((#536,#537,#526));
#539=IFCFACEOUTERBOUND(#538,.T.);
#540=IFCFACE((#539));
#541=IFCPOLYLOOP((#536,#526,#525));
#542=IFCFACEOUTERBOUND(#541,.T.);
#543=IFCFACE((#542));
#544=IFCPOLYLOOP((#525,#511,#501));
#545=IFCFACEOUTERBOUND(#544,.T.);
#546=IFCFACE((#545));
#547=IFCPOLYLOOP((#482,#483,#501));
#548=IFCFACEOUTERBOUND(#547,.T.);
#549=IFCFACE((#548));
#550=IFCPOLYLOOP((#512,#526,#537));
#551=IFCFACEOUTERBOUND(#550,.T.);
#552=IFCFACE((#551));
#553=IFCCARTESIANPOINT((37723.216021728498,691.28912715911895,-3000.00002288818));
#554=IFCPOLYLOOP((#525,#478,#553));
#555=IFCFACEOUTERBOUND(#554,.T.);
#556=IFCFACE((#555));
#557=IFCPOLYLOOP((#187,#470,#511));
#558=IFCFACEOUTERBOUND(#557,.T.);
#559=IFCFACE((#558));
#560=IFCCARTESIANPOINT((42101.3604125977,1277.6353866577099,-3000.00002288818));
#561=IFCPOLYLOOP((#553,#560,#536));
#562=IFCFACEOUTERBOUND(#561,.T.);
#563=IFCFACE((#562));
#564=IFCPOLYLOOP((#560,#553,#490));
#565=IFCFACEOUTERBOUND(#564,.T.);
#566=IFCFACE((#565));
#567=IFCCARTESIANPOINT((39631.478613281302,9378.6600952148401,-2000.00001525879));
#568=IFCCARTESIANPOINT((36963.711218261698,11856.2739807129,-1000.00000762939));
#569=IFCPOLYLOOP((#567,#568,#537));
#570=IFCFACEOUTERBOUND(#569,.T.);
#571=IFCFACE((#570));
#572=IFCCARTESIANPOINT((45542.615478515603,2712.0661445617702,-3000.00002288818));
#573=IFCPOLYLOOP((#572,#567,#536));
#574=IFCFACEOUTERBOUND(#573,.T.);
#575=IFCFACE((#574));
#576=IFCPOLYLOOP((#536,#560,#572));
#577=IFCFACEOUTERBOUND(#576,.T.);
#578=IFCFACE((#577));
#579=IFCPOLYLOOP((#567,#537,#536));
#580=IFCFACEOUTERBOUND(#579,.T.);
#581=IFCFACE((#580));
#582=IFCCARTESIANPOINT((46574.4269165039,3507.4690475463899,-3000.00002288818));
#583=IFCPOLYLOOP((#572,#490,#582));
#584=IFCFACEOUTERBOUND(#583,.T.);
#585=IFCFACE((#584));
#586=IFCPOLYLOOP((#582,#567,#572));
#587=IFCFACEOUTERBOUND(#586,.T.);
#588=IFCFACE((#587));
#589=IFCCARTESIANPOINT((42129.688916015599,11563.2930267334,-2000.00001525879));
#590=IFCCARTESIANPOINT((43539.333105468802,13787.366574096701,-2000.00001525879));
#591=IFCPOLYLOOP((#589,#582,#590));
#592=IFCFACEOUTERBOUND(#591,.T.);
#593=IFCFACE((#592));
#594=IFCPOLYLOOP((#589,#567,#582));
#595=IFCFACEOUTERBOUND(#594,.T.);
#596=IFCFACE((#595));
#597=IFCPOLYLOOP((#572,#560,#490));
#598=IFCFACEOUTERBOUND(#597,.T.);
#599=IFCFACE((#598));
#600=IFCPOLYLOOP((#553,#478,#490));
#601=IFCFACEOUTERBOUND(#600,.T.);
#602=IFCFACE((#601));
#603=IFCCARTESIANPOINT((37322.112597656298,12820.339553833001,-1000.00000762939));
#604=IFCPOLYLOOP((#567,#589,#603));
#605=IFCFACEOUTERBOUND(#604,.T.);
#606=IFCFACE((#605));
#607=IFCPOLYLOOP((#568,#603,#512));
#608=IFCFACEOUTERBOUND(#607,.T.);
#609=IFCFACE((#608));
#610=IFCPOLYLOOP((#568,#567,#603));
#611=IFCFACEOUTERBOUND(#610,.T.);
#612=IFCFACE((#611));
#613=IFCCARTESIANPOINT((35429.195581054701,21444.5282592773,0.));
#614=IFCCARTESIANPOINT((37827.288739013697,15591.801782226599,-1000.00000762939));
#615=IFCPOLYLOOP((#613,#512,#614));
#616=IFCFACEOUTERBOUND(#615,.T.);
#617=IFCFACE((#616));
#618=IFCPOLYLOOP((#614,#512,#603));
#619=IFCFACEOUTERBOUND(#618,.T.);
#620=IFCFACE((#619));
#621=IFCCARTESIANPOINT((42869.504223632801,13082.7270263672,-2000.00001525879));
#622=IFCPOLYLOOP((#603,#621,#614));
#623=IFCFACEOUTERBOUND(#622,.T.);
#624=IFCFACE((#623));
#625=IFCPOLYLOOP((#512,#537,#568));
#626=IFCFACEOUTERBOUND(#625,.T.);
#627=IFCFACE((#626));
#628=IFCCARTESIANPOINT((40269.611755371101,19849.251214599601,-1000.00000762939));
#629=IFCPOLYLOOP((#590,#628,#614));
#630=IFCFACEOUTERBOUND(#629,.T.);
#631=IFCFACE((#630));
#632=IFCPOLYLOOP((#590,#621,#589));
#633=IFCFACEOUTERBOUND(#632,.T.);
#634=IFCFACE((#633));
#635=IFCCARTESIANPOINT((44936.075756835897,15740.719436645501,-2000.00001525879));
#636=IFCCARTESIANPOINT((41379.827709960897,20387.4555725098,-1000.00000762939));
#637=IFCPOLYLOOP((#628,#635,#636));
#638=IFCFACEOUTERBOUND(#637,.T.);
#639=IFCFACE((#638));
#640=IFCPOLYLOOP((#635,#628,#590));
#641=IFCFACEOUTERBOUND(#640,.T.);
#642=IFCFACE((#641));
#643=IFCPOLYLOOP((#590,#582,#635));
#644=IFCFACEOUTERBOUND(#643,.T.);
#645=IFCFACE((#644));
#646=IFCPOLYLOOP((#590,#614,#621));
#647=IFCFACEOUTERBOUND(#646,.T.);
#648=IFCFACE((#647));
#649=IFCPOLYLOOP((#589,#621,#603));
#650=IFCFACEOUTERBOUND(#649,.T.);
#651=IFCFACE((#650));
#652=IFCPOLYLOOP((#613,#614,#628));
#653=IFCFACEOUTERBOUND(#652,.T.);
#654=IFCFACE((#653));
#655=IFCPOLYLOOP((#525,#553,#536));
#656=IFCFACEOUTERBOUND(#655,.T.);
#657=IFCFACE((#656));
#658=IFCPOLYLOOP((#512,#358,#187));
#659=IFCFACEOUTERBOUND(#658,.T.);
#660=IFCFACE((#659));
#661=IFCCARTESIANPOINT((28519.666168212902,29454.041693115199,500.00000381469698));
#662=IFCCARTESIANPOINT((27645.882293701201,30051.828460693399,500.00000381469698));
#663=IFCPOLYLOOP((#358,#661,#662));
#664=IFCFACEOUTERBOUND(#663,.T.);
#665=IFCFACE((#664));
#666=IFCCARTESIANPOINT((29812.2500610352,29328.0610107422,500.00000381469698));
#667=IFCPOLYLOOP((#661,#358,#666));
#668=IFCFACEOUTERBOUND(#667,.T.);
#669=IFCFACE((#668));
#670=IFCPOLYLOOP((#662,#661,#666));
#671=IFCFACEOUTERBOUND(#670,.T.);
#672=IFCFACE((#671));
#673=IFCPOLYLOOP((#358,#662,#422));
#674=IFCFACEOUTERBOUND(#673,.T.);
#675=IFCFACE((#674));
#676=IFCCARTESIANPOINT((31005.674890136699,34099.586041259798,500.00000381469698));
#677=IFCCARTESIANPOINT((32087.771630859399,29246.0869445801,500.00000381469698));
#678=IFCPOLYLOOP((#676,#666,#677));
#679=IFCFACEOUTERBOUND(#678,.T.);
#680=IFCFACE((#679));
#681=IFCPOLYLOOP((#677,#666,#358));
#682=IFCFACEOUTERBOUND(#681,.T.);
#683=IFCFACE((#682));
#684=IFCCARTESIANPOINT((33097.705334472703,29567.0766540527,500.00000381469698));
#685=IFCPOLYLOOP((#677,#684,#676));
#686=IFCFACEOUTERBOUND(#685,.T.);
#687=IFCFACE((#686));
#688=IFCCARTESIANPOINT((34498.273333740202,30549.026019287099,500.00000381469698));
#689=IFCCARTESIANPOINT((35802.661157226597,25276.3711120605,0.));
#690=IFCPOLYLOOP((#688,#684,#689));
#691=IFCFACEOUTERBOUND(#690,.T.);
#692=IFCFACE((#691));
#693=IFCPOLYLOOP((#684,#677,#689));
#694=IFCFACEOUTERBOUND(#693,.T.);
#695=IFCFACE((#694));
#696=IFCCARTESIANPOINT((27904.499066162101,33661.5988220215,500.00000381469698));
#697=IFCPOLYLOOP((#662,#666,#696));
#698=IFCFACEOUTERBOUND(#697,.T.);
#699=IFCFACE((#698));
#700=IFCPOLYLOOP((#677,#358,#689));
#701=IFCFACEOUTERBOUND(#700,.T.);
#702=IFCFACE((#701));
#703=IFCCARTESIANPOINT((33322.689276122997,34242.607543945298,500.00000381469698));
#704=IFCPOLYLOOP((#684,#688,#703));
#705=IFCFACEOUTERBOUND(#704,.T.);
#706=IFCFACE((#705));
#707=IFCPOLYLOOP((#423,#696,#434));
#708=IFCFACEOUTERBOUND(#707,.T.);
#709=IFCFACE((#708));
#710=IFCPOLYLOOP((#423,#422,#696));
#711=IFCFACEOUTERBOUND(#710,.T.);
#712=IFCFACE((#711));
#713=IFCCARTESIANPOINT((26793.241314697301,33257.281640624999,500.00000381469698));
#714=IFCPOLYLOOP((#713,#696,#421));
#715=IFCFACEOUTERBOUND(#714,.T.);
#716=IFCFACE((#715));
#717=IFCPOLYLOOP((#696,#713,#434));
#718=IFCFACEOUTERBOUND(#717,.T.);
#719=IFCFACE((#718));
#720=IFCPOLYLOOP((#662,#696,#422));
#721=IFCFACEOUTERBOUND(#720,.T.);
#722=IFCFACE((#721));
#723=IFCPOLYLOOP((#434,#713,#421));
#724=IFCFACEOUTERBOUND(#723,.T.);
#725=IFCFACE((#724));
#726=IFCPOLYLOOP((#684,#703,#676));
#727=IFCFACEOUTERBOUND(#726,.T.);
#728=IFCFACE((#727));
#729=IFCPOLYLOOP((#696,#666,#676));
#730=IFCFACEOUTERBOUND(#729,.T.);
#731=IFCFACE((#730));
#732=IFCCARTESIANPOINT((34137.176770019498,34144.4949279785,500.00000381469698));
#733=IFCCARTESIANPOINT((42309.319812011701,35354.251318359398,0.));
#734=IFCPOLYLOOP((#703,#732,#733));
#735=IFCFACEOUTERBOUND(#734,.T.);
#736=IFCFACE((#735));
#737=IFCCARTESIANPOINT((34581.091534423802,33895.217120361303,500.00000381469698));
#738=IFCPOLYLOOP((#732,#703,#737));
#739=IFCFACEOUTERBOUND(#738,.T.);
#740=IFCFACE((#739));
#741=IFCPOLYLOOP((#737,#733,#732));
#742=IFCFACEOUTERBOUND(#741,.T.);
#743=IFCFACE((#742));
#744=IFCPOLYLOOP((#676,#703,#733));
#745=IFCFACEOUTERBOUND(#744,.T.);
#746=IFCFACE((#745));
#747=IFCCARTESIANPOINT((35291.871405029298,32475.575866699201,500.00000381469698));
#748=IFCPOLYLOOP((#747,#737,#703));
#749=IFCFACEOUTERBOUND(#748,.T.);
#750=IFCFACE((#749));
#751=IFCPOLYLOOP((#696,#676,#421));
#752=IFCFACEOUTERBOUND(#751,.T.);
#753=IFCFACE((#752));
#754=IFCCARTESIANPOINT((35206.385925292998,31598.464288330098,500.00000381469698));
#755=IFCPOLYLOOP((#703,#688,#754));
#756=IFCFACEOUTERBOUND(#755,.T.);
#757=IFCFACE((#756));
#758=IFCPOLYLOOP((#380,#358,#422));
#759=IFCFACEOUTERBOUND(#758,.T.);
#760=IFCFACE((#759));
#761=IFCCARTESIANPOINT((36878.425726318397,24183.9773254395,0.));
#762=IFCPOLYLOOP((#613,#761,#689));
#763=IFCFACEOUTERBOUND(#762,.T.);
#764=IFCFACE((#763));
#765=IFCCARTESIANPOINT((37582.3339233398,24874.411926269499,0.));
#766=IFCPOLYLOOP((#761,#628,#765));
#767=IFCFACEOUTERBOUND(#766,.T.);
#768=IFCFACE((#767));
#769=IFCCARTESIANPOINT((38862.399975585897,25949.4277038574,0.));
#770=IFCPOLYLOOP((#689,#765,#769));
#771=IFCFACEOUTERBOUND(#770,.T.);
#772=IFCFACE((#771));
#773=IFCPOLYLOOP((#765,#689,#761));
#774=IFCFACEOUTERBOUND(#773,.T.);
#775=IFCFACE((#774));
#776=IFCPOLYLOOP((#613,#628,#761));
#777=IFCFACEOUTERBOUND(#776,.T.);
#778=IFCFACE((#777));
#779=IFCPOLYLOOP((#769,#688,#689));
#780=IFCFACEOUTERBOUND(#779,.T.);
#781=IFCFACE((#780));
#782=IFCCARTESIANPOINT((43408.610852050799,21306.248327636698,-1000.00000762939));
#783=IFCPOLYLOOP((#636,#782,#769));
#784=IFCFACEOUTERBOUND(#783,.T.);
#785=IFCFACE((#784));
#786=IFCPOLYLOOP((#782,#636,#635));
#787=IFCFACEOUTERBOUND(#786,.T.);
#788=IFCFACE((#787));
#789=IFCCARTESIANPOINT((41422.629748535197,27095.5577453613,0.));
#790=IFCCARTESIANPOINT((44133.059655761703,21736.7104248047,-1000.00000762939));
#791=IFCPOLYLOOP((#789,#782,#790));
#792=IFCFACEOUTERBOUND(#791,.T.);
#793=IFCFACE((#792));
#794=IFCPOLYLOOP((#782,#789,#769));
#795=IFCFACEOUTERBOUND(#794,.T.);
#796=IFCFACE((#795));
#797=IFCPOLYLOOP((#782,#635,#790));
#798=IFCFACEOUTERBOUND(#797,.T.);
#799=IFCFACE((#798));
#800=IFCPOLYLOOP((#636,#769,#765));
#801=IFCFACEOUTERBOUND(#800,.T.);
#802=IFCFACE((#801));
#803=IFCPOLYLOOP((#636,#765,#628));
#804=IFCFACEOUTERBOUND(#803,.T.);
#805=IFCFACE((#804));
#806=IFCPOLYLOOP((#769,#754,#688));
#807=IFCFACEOUTERBOUND(#806,.T.);
#808=IFCFACE((#807));
#809=IFCCARTESIANPOINT((43155.291430664103,29037.543859863301,0.));
#810=IFCPOLYLOOP((#747,#754,#809));
#811=IFCFACEOUTERBOUND(#810,.T.);
#812=IFCFACE((#811));
#813=IFCPOLYLOOP((#789,#754,#769));
#814=IFCFACEOUTERBOUND(#813,.T.);
#815=IFCFACE((#814));
#816=IFCCARTESIANPOINT((35142.041015625,33329.019122314501,500.00000381469698));
#817=IFCPOLYLOOP((#733,#816,#747));
#818=IFCFACEOUTERBOUND(#817,.T.);
#819=IFCFACE((#818));
#820=IFCPOLYLOOP((#816,#737,#747));
#821=IFCFACEOUTERBOUND(#820,.T.);
#822=IFCFACE((#821));
#823=IFCPOLYLOOP((#809,#754,#789));
#824=IFCFACEOUTERBOUND(#823,.T.);
#825=IFCFACE((#824));
#826=IFCPOLYLOOP((#703,#754,#747));
#827=IFCFACEOUTERBOUND(#826,.T.);
#828=IFCFACE((#827));
#829=IFCCARTESIANPOINT((42387.477832031298,27197.400366210899,0.));
#830=IFCCARTESIANPOINT((43409.313134765602,27140.799169921898,0.));
#831=IFCPOLYLOOP((#829,#830,#809));
#832=IFCFACEOUTERBOUND(#831,.T.);
#833=IFCFACE((#832));
#834=IFCPOLYLOOP((#829,#789,#790));
#835=IFCFACEOUTERBOUND(#834,.T.);
#836=IFCFACE((#835));
#837=IFCPOLYLOOP((#733,#747,#809));
#838=IFCFACEOUTERBOUND(#837,.T.);
#839=IFCFACE((#838));
#840=IFCPOLYLOOP((#809,#789,#829));
#841=IFCFACEOUTERBOUND(#840,.T.);
#842=IFCFACE((#841));
#843=IFCPOLYLOOP((#790,#830,#829));
#844=IFCFACEOUTERBOUND(#843,.T.);
#845=IFCFACE((#844));
#846=IFCPOLYLOOP((#816,#733,#737));
#847=IFCFACEOUTERBOUND(#846,.T.);
#848=IFCFACE((#847));
#849=IFCPOLYLOOP((#358,#613,#689));
#850=IFCFACEOUTERBOUND(#849,.T.);
#851=IFCFACE((#850));
#852=IFCPOLYLOOP((#358,#512,#613));
#853=IFCFACEOUTERBOUND(#852,.T.);
#854=IFCFACE((#853));
#855=IFCPOLYLOOP((#676,#733,#421));
#856=IFCFACEOUTERBOUND(#855,.T.);
#857=IFCFACE((#856));
#858=IFCPOLYLOOP((#459,#173,#463));
#859=IFCFACEOUTERBOUND(#858,.T.);
#860=IFCFACE((#859));
#861=IFCCONNECTEDFACESET((#65,#69,#73,#79,#83,#86,#89,#93,#96,#100,#106,#110,#115,#118,#121,#124,#128,#131,#134,#138,#141,#144,#147,#150,#154,#159,#162,#167,#171,#177,#180,#183,#186,#190,#193,#196,#199,#202,#206,#209,#212,#215,#218,#221,#225,#228,#231,#234,#237,#240,#244,#248,#251,#255,#258,#264,#267,#271,#275,#280,#283,#288,#291,#295,#298,#301,#304,#309,#314,#317,#320,#323,#327,#331,#336,#340,#343,#346,#349,#353,#357,#361,#364,#368,#372,#375,#379,#383,#387,#390,#393,#396,#399,#402,#405,#408,#411,#414,#417,#420,#426,#429,#433,#437,#440,#443,#446,#449,#452,#455,#458,#462,#466,#469,#473,#477,#481,#486,#489,#493,#497,#500,#504,#507,#510,#515,#518,#521,#524,#529,#532,#535,#540,#543,#546,#549,#552,#556,#559,#563,#566,#571,#575,#578,#581,#585,#588,#593,#596,#599,#602,#606,#609,#612,#617,#620,#624,#627,#631,#634,#639,#642,#645,#648,#651,#654,#657,#660,#665,#669,#672,#675,#680,#683,#687,#692,#695,#699,#702,#706,#709,#712,#716,#719,#722,#725,#728,#731,#736,#740,#743,#746,#750,#753,#757,#760,#764,#768,#772,#775,#778,#781,#785,#788,#793,#796,#799,#802,#805,#808,#812,#815,#819,#822,#825,#828,#833,#836,#839,#842,#845,#848,#851,#854,#857,#860));
#862=IFCFACEBASEDSURFACEMODEL((#861));
#863=IFCSHAPEREPRESENTATION(#59,'Body','SurfaceModel',(#862));
#864=IFCGEOMETRICREPRESENTATIONSUBCONTEXT('FootPrint','Model',*,*,*,*,#11,$,.MODEL_VIEW.,$);
#865=IFCCARTESIANPOINT((3349.5792663574198,-1287.0614101409899));
#866=IFCCARTESIANPOINT((9850.4766448974606,-1478.3817089080801));
#867=IFCCARTESIANPOINT((31580.0584350586,-2117.8793025970499));
#868=IFCCARTESIANPOINT((47390.1213134766,-2583.1664543151901));
#869=IFCCARTESIANPOINT((46574.4269165039,3507.4690475463899));
#870=IFCCARTESIANPOINT((44936.075756835897,15740.719436645501));
#871=IFCCARTESIANPOINT((44133.059655761703,21736.7104248047));
#872=IFCCARTESIANPOINT((43409.313134765602,27140.799169921898));
#873=IFCCARTESIANPOINT((43155.291430664103,29037.543859863301));
#874=IFCCARTESIANPOINT((42309.319812011701,35354.251318359398));
#875=IFCCARTESIANPOINT((24406.293988037101,33890.701116943397));
#876=IFCCARTESIANPOINT((19716.291888427699,33507.2989379883));
#877=IFCCARTESIANPOINT((16658.5796905518,33257.335125732403));
#878=IFCCARTESIANPOINT((7500.3363739013703,32508.657568359398));
#879=IFCCARTESIANPOINT((6503.2670013427696,32427.148590087902));
#880=IFCCARTESIANPOINT((5574.9248291015601,22502.7962219238));
#881=IFCCARTESIANPOINT((4970.92216186523,16045.7601196289));
#882=IFCCARTESIANPOINT((3697.88155288696,2436.4319515228299));
#883=IFCCARTESIANPOINT((3349.5792663574198,-1287.0614101409899));
#884=IFCPOLYLINE((#865,#866,#867,#868,#869,#870,#871,#872,#873,#874,#875,#876,#877,#878,#879,#880,#881,#882,#883,#865));
#885=IFCSHAPEREPRESENTATION(#864,'FootPrint','Curve2D',(#884));
#886=IFCPRODUCTDEFINITIONSHAPE($,$,(#863,#885));
#887=IFCSITE('12bEnZLlH9KvTuRDnNYXdO',#7,'Surface:393946',$,'',#58,#886,$,.ELEMENT.,(42,21,31,181945),(-71,-3,-24,-263305),0.,$,$);
#888=IFCAXIS2PLACEMENT3D(#8,$,$);
#889=IFCLOCALPLACEMENT(#58,#888);
#890=IFCPOSTALADDRESS($,$,$,$,(),$,$,$,$,$);
#891=IFCBUILDING('2bb286$Af9iuq951kXeLke',#7,'Grethes hus',$,$,#889,$,'Grethes hus',.ELEMENT.,$,$,#890);
#892=IFCCARTESIANPOINT((0.,0.,-800.));
#893=IFCAXIS2PLACEMENT3D(#892,$,$);
#894=IFCLOCALPLACEMENT(#889,#893);
#895=IFCBUILDINGSTOREY('2bb286$Af9iuq951jUM_U4',#7,'0. kjeller',$,$,#894,$,'0. kjeller',.ELEMENT.,-800.);
#896=IFCAXIS2PLACEMENT3D(#8,$,$);
#897=IFCLOCALPLACEMENT(#889,#896);
#898=IFCBUILDINGSTOREY('2bb286$Af9iuq951jUNgLk',#7,'1. etasje',$,$,#897,$,'1. etasje',.ELEMENT.,0.);
#899=IFCCARTESIANPOINT((0.,0.,2850.));
#900=IFCAXIS2PLACEMENT3D(#899,$,$);
#901=IFCLOCALPLACEMENT(#889,#900);
#902=IFCBUILDINGSTOREY('2bb286$Af9iuq951jUNgRl',#7,'2. etasje',$,$,#901,$,'2. etasje',.ELEMENT.,2850.);
#903=IFCCARTESIANPOINT((17757.041877130399,27419.1196975649,400.));
#904=IFCDIRECTION((0.,0.,1.));
#905=IFCDIRECTION((0.99488683441300396,-0.100995973739908,0.));
#906=IFCAXIS2PLACEMENT3D(#903,#904,#905);
#907=IFCLOCALPLACEMENT(#897,#906);
#908=IFCCARTESIANPOINT((5416.,-158.,0.));
#909=IFCAXIS2PLACEMENT3D(#908,$,$);
#910=IFCLOCALPLACEMENT(#907,#909);
#911=IFCAXIS2PLACEMENT3D(#8,$,$);
#912=IFCLOCALPLACEMENT(#910,#911);
#913=IFCAXIS2PLACEMENT3D(#8,$,$);
#914=IFCCARTESIANPOINT((-526.,-1057.));
#915=IFCCARTESIANPOINT((526.,-1057.));
#916=IFCCARTESIANPOINT((526.,1019.));
#917=IFCCARTESIANPOINT((450.,1019.));
#918=IFCCARTESIANPOINT((450.,-981.));
#919=IFCCARTESIANPOINT((-450.,-981.));
#920=IFCCARTESIANPOINT((-450.,1019.));
#921=IFCCARTESIANPOINT((-526.,1019.));
#922=IFCPOLYLINE((#914,#915,#916,#917,#918,#919,#920,#921,#914));
#923=IFCARBITRARYCLOSEDPROFILEDEF(.AREA.,'_900x2000mm',#922);
#924=IFCCARTESIANPOINT((450.,316.,1019.));
#925=IFCDIRECTION((0.,1.,0.));
#926=IFCDIRECTION((1.,0.,0.));
#927=IFCAXIS2PLACEMENT3D(#924,#925,#926);
#928=IFCEXTRUDEDAREASOLID(#923,#927,#904,24.9999999999945);
#929=IFCCARTESIANPOINT((-1057.,-526.));
#930=IFCCARTESIANPOINT((1019.,-526.));
#931=IFCCARTESIANPOINT((1019.,-450.));
#932=IFCCARTESIANPOINT((-981.,-450.));
#933=IFCCARTESIANPOINT((-981.,450.));
#934=IFCCARTESIANPOINT((1019.,450.));
#935=IFCCARTESIANPOINT((1019.,526.));
#936=IFCCARTESIANPOINT((-1057.,526.));
#937=IFCPOLYLINE((#929,#930,#931,#932,#933,#934,#935,#936,#929));
#938=IFCARBITRARYCLOSEDPROFILEDEF(.AREA.,'_900x2000mm',#937);
#939=IFCCARTESIANPOINT((450.,-25.,1019.));
#940=IFCDIRECTION((0.,0.,-1.));
#941=IFCAXIS2PLACEMENT3D(#939,#925,#940);
#942=IFCEXTRUDEDAREASOLID(#938,#941,#904,25.000000000005599);
#943=IFCCARTESIANPOINT((0.,0.));
#944=IFCDIRECTION((1.,0.));
#945=IFCAXIS2PLACEMENT2D(#943,#944);
#946=IFCRECTANGLEPROFILEDEF(.AREA.,'_900x2000mm',#945,51.,900.);
#947=IFCCARTESIANPOINT((450.,290.49999999999898,0.));
#948=IFCAXIS2PLACEMENT3D(#947,#904,#925);
#949=IFCEXTRUDEDAREASOLID(#946,#948,#904,2000.);
#950=IFCSHAPEREPRESENTATION(#59,'Body','SweptSolid',(#928,#942,#949));
#951=IFCREPRESENTATIONMAP(#913,#950);
#952=IFCCARTESIANTRANSFORMATIONOPERATOR3D($,$,#8,1.,$);
#953=IFCMAPPEDITEM(#951,#952);
#954=IFCSHAPEREPRESENTATION(#59,'Body','MappedRepresentation',(#953));
#955=IFCPRODUCTDEFINITIONSHAPE($,$,(#954));
#956=IFCDOOR('3Q87Kkn4X0hh69O_upt9yD',#7,'M_Single-Flush:_900x2000mm:350702',$,'_900x2000mm',#912,#955,'350702',2000.,900.00000000000102);
#957=IFCCARTESIANPOINT((12398.,-158.,0.));
#958=IFCAXIS2PLACEMENT3D(#957,$,$);
#959=IFCLOCALPLACEMENT(#907,#958);
#960=IFCAXIS2PLACEMENT3D(#8,$,$);
#961=IFCLOCALPLACEMENT(#959,#960);
#962=IFCAXIS2PLACEMENT3D(#8,$,$);
#963=IFCCARTESIANPOINT((-526.,-1057.));
#964=IFCCARTESIANPOINT((526.,-1057.));
#965=IFCCARTESIANPOINT((526.,1019.));
#966=IFCCARTESIANPOINT((450.,1019.));
#967=IFCCARTESIANPOINT((450.,-981.));
#968=IFCCARTESIANPOINT((-450.,-981.));
#969=IFCCARTESIANPOINT((-450.,1019.));
#970=IFCCARTESIANPOINT((-526.,1019.));
#971=IFCPOLYLINE((#963,#964,#965,#966,#967,#968,#969,#970,#963));
#972=IFCARBITRARYCLOSEDPROFILEDEF(.AREA.,'_900x2000mm',#971);
#973=IFCCARTESIANPOINT((450.,341.,1019.));
#974=IFCDIRECTION((0.,-1.,0.));
#975=IFCDIRECTION((-1.,0.,0.));
#976=IFCAXIS2PLACEMENT3D(#973,#974,#975);
#977=IFCEXTRUDEDAREASOLID(#972,#976,#904,24.9999999999945);
#978=IFCCARTESIANPOINT((-1057.,-526.));
#979=IFCCARTESIANPOINT((1019.,-526.));
#980=IFCCARTESIANPOINT((1019.,-450.));
#981=IFCCARTESIANPOINT((-981.,-450.));
#982=IFCCARTESIANPOINT((-981.,450.));
#983=IFCCARTESIANPOINT((1019.,450.));
#984=IFCCARTESIANPOINT((1019.,526.));
#985=IFCCARTESIANPOINT((-1057.,526.));
#986=IFCPOLYLINE((#978,#979,#980,#981,#982,#983,#984,#985,#978));
#987=IFCARBITRARYCLOSEDPROFILEDEF(.AREA.,'_900x2000mm',#986);
#988=IFCCARTESIANPOINT((450.,0.,1019.));
#989=IFCAXIS2PLACEMENT3D(#988,#974,#940);
#990=IFCEXTRUDEDAREASOLID(#987,#989,#904,25.000000000005599);
#991=IFCCARTESIANPOINT((0.,1.7763568394002501E-14));
#992=IFCAXIS2PLACEMENT2D(#991,#944);
#993=IFCRECTANGLEPROFILEDEF(.AREA.,'_900x2000mm',#992,900.,51.);
#994=IFCCARTESIANPOINT((450.,290.49999999999397,0.));
#995=IFCAXIS2PLACEMENT3D(#994,$,$);
#996=IFCEXTRUDEDAREASOLID(#993,#995,#904,2000.);
#997=IFCSHAPEREPRESENTATION(#59,'Body','SweptSolid',(#977,#990,#996));
#998=IFCREPRESENTATIONMAP(#962,#997);
#999=IFCMAPPEDITEM(#998,#952);
#1000=IFCSHAPEREPRESENTATION(#59,'Body','MappedRepresentation',(#999));
#1001=IFCPRODUCTDEFINITIONSHAPE($,$,(#1000));
#1002=IFCDOOR('3Q87Kkn4X0hh69O_uptAY7',#7,'M_Single-Flush:_900x2000mm:355940',$,'_900x2000mm',#961,#1001,'355940',2000.,900.00000000000205);
#1003=IFCCARTESIANPOINT((29428.517600546202,26075.477376218099,400.));
#1004=IFCDIRECTION((-0.100995973739911,-0.99488683441300396,0.));
#1005=IFCAXIS2PLACEMENT3D(#1003,#904,#1004);
#1006=IFCLOCALPLACEMENT(#897,#1005);
#1007=IFCCARTESIANPOINT((600.,-49.499999999995701,200.));
#1008=IFCAXIS2PLACEMENT3D(#1007,$,$);
#1009=IFCLOCALPLACEMENT(#1006,#1008);
#1010=IFCAXIS2PLACEMENT3D(#8,$,$);
#1011=IFCLOCALPLACEMENT(#1009,#1010);
#1012=IFCAXIS2PLACEMENT3D(#8,$,$);
#1013=IFCCARTESIANPOINT((-476.,-1057.));
#1014=IFCCARTESIANPOINT((476.,-1057.));
#1015=IFCCARTESIANPOINT((476.,1019.));
#1016=IFCCARTESIANPOINT((400.,1019.));
#1017=IFCCARTESIANPOINT((400.,-981.));
#1018=IFCCARTESIANPOINT((-400.,-981.));
#1019=IFCCARTESIANPOINT((-400.,1019.));
#1020=IFCCARTESIANPOINT((-476.,1019.));
#1021=IFCPOLYLINE((#1013,#1014,#1015,#1016,#1017,#1018,#1019,#1020,#1013));
#1022=IFCARBITRARYCLOSEDPROFILEDEF(.AREA.,'_800x2000mm',#1021);
#1023=IFCCARTESIANPOINT((400.,124.,1019.));
#1024=IFCAXIS2PLACEMENT3D(#1023,#974,#975);
#1025=IFCEXTRUDEDAREASOLID(#1022,#1024,#904,24.9999999999945);
#1026=IFCCARTESIANPOINT((-1057.,-476.));
#1027=IFCCARTESIANPOINT((1019.,-476.));
#1028=IFCCARTESIANPOINT((1019.,-400.));
#1029=IFCCARTESIANPOINT((-981.,-400.));
#1030=IFCCARTESIANPOINT((-981.,400.));
#1031=IFCCARTESIANPOINT((1019.,400.));
#1032=IFCCARTESIANPOINT((1019.,476.));
#1033=IFCCARTESIANPOINT((-1057.,476.));
#1034=IFCPOLYLINE((#1026,#1027,#1028,#1029,#1030,#1031,#1032,#1033,#1026));
#1035=IFCARBITRARYCLOSEDPROFILEDEF(.AREA.,'_800x2000mm',#1034);
#1036=IFCCARTESIANPOINT((400.,0.,1019.));
#1037=IFCAXIS2PLACEMENT3D(#1036,#974,#940);
#1038=IFCEXTRUDEDAREASOLID(#1035,#1037,#904,25.000000000005599);
#1039=IFCCARTESIANPOINT((0.,0.));
#1040=IFCAXIS2PLACEMENT2D(#1039,#944);
#1041=IFCRECTANGLEPROFILEDEF(.AREA.,'_800x2000mm',#1040,800.,51.);
#1042=IFCCARTESIANPOINT((400.,73.499999999993804,0.));
#1043=IFCAXIS2PLACEMENT3D(#1042,$,$);
#1044=IFCEXTRUDEDAREASOLID(#1041,#1043,#904,2000.);
#1045=IFCSHAPEREPRESENTATION(#59,'Body','SweptSolid',(#1025,#1038,#1044));
#1046=IFCREPRESENTATIONMAP(#1012,#1045);
#1047=IFCMAPPEDITEM(#1046,#952);
#1048=IFCSHAPEREPRESENTATION(#59,'Body','MappedRepresentation',(#1047));
#1049=IFCPRODUCTDEFINITIONSHAPE($,$,(#1048));
#1050=IFCDOOR('0AcubLcjbDbQQeAgLg2aP7',#7,'M_Single-Flush:_800x2000mm:379349',$,'_800x2000mm',#1011,#1049,'379349',2000.,800.00000000000102);
#1051=IFCCARTESIANPOINT((4441.,49.500000000000497,0.));
#1052=IFCAXIS2PLACEMENT3D(#1051,$,$);
#1053=IFCLOCALPLACEMENT(#1006,#1052);
#1054=IFCAXIS2PLACEMENT3D(#8,#904,#975);
#1055=IFCLOCALPLACEMENT(#1053,#1054);
#1056=IFCMAPPEDITEM(#1046,#952);
#1057=IFCSHAPEREPRESENTATION(#59,'Body','MappedRepresentation',(#1056));
#1058=IFCPRODUCTDEFINITIONSHAPE($,$,(#1057));
#1059=IFCDOOR('0AcubLcjbDbQQeAgLg2aLo',#7,'M_Single-Flush:_800x2000mm:379616',$,'_800x2000mm',#1055,#1058,'379616',2000.,800.00000000000102);
#1060=IFCCARTESIANPOINT((24671.9636452177,26558.339126668601,400.));
#1061=IFCDIRECTION((-0.10099597373991,-0.99488683441300396,0.));
#1062=IFCAXIS2PLACEMENT3D(#1060,#904,#1061);
#1063=IFCLOCALPLACEMENT(#897,#1062);
#1064=IFCCARTESIANPOINT((1400.,49.500000000002302,200.));
#1065=IFCAXIS2PLACEMENT3D(#1064,$,$);
#1066=IFCLOCALPLACEMENT(#1063,#1065);
#1067=IFCAXIS2PLACEMENT3D(#8,#904,#975);
#1068=IFCLOCALPLACEMENT(#1066,#1067);
#1069=IFCAXIS2PLACEMENT3D(#8,$,$);
#1070=IFCCARTESIANPOINT((-476.,-1057.));
#1071=IFCCARTESIANPOINT((476.,-1057.));
#1072=IFCCARTESIANPOINT((476.,1019.));
#1073=IFCCARTESIANPOINT((400.,1019.));
#1074=IFCCARTESIANPOINT((400.,-981.));
#1075=IFCCARTESIANPOINT((-400.,-981.));
#1076=IFCCARTESIANPOINT((-400.,1019.));
#1077=IFCCARTESIANPOINT((-476.,1019.));
#1078=IFCPOLYLINE((#1070,#1071,#1072,#1073,#1074,#1075,#1076,#1077,#1070));
#1079=IFCARBITRARYCLOSEDPROFILEDEF(.AREA.,'_800x2000mm',#1078);
#1080=IFCCARTESIANPOINT((400.,99.,1019.));
#1081=IFCAXIS2PLACEMENT3D(#1080,#925,#926);
#1082=IFCEXTRUDEDAREASOLID(#1079,#1081,#904,24.9999999999945);
#1083=IFCCARTESIANPOINT((-1057.,-476.));
#1084=IFCCARTESIANPOINT((1019.,-476.));
#1085=IFCCARTESIANPOINT((1019.,-400.));
#1086=IFCCARTESIANPOINT((-981.,-400.));
#1087=IFCCARTESIANPOINT((-981.,400.));
#1088=IFCCARTESIANPOINT((1019.,400.));
#1089=IFCCARTESIANPOINT((1019.,476.));
#1090=IFCCARTESIANPOINT((-1057.,476.));
#1091=IFCPOLYLINE((#1083,#1084,#1085,#1086,#1087,#1088,#1089,#1090,#1083));
#1092=IFCARBITRARYCLOSEDPROFILEDEF(.AREA.,'_800x2000mm',#1091);
#1093=IFCCARTESIANPOINT((400.,-25.,1019.));
#1094=IFCAXIS2PLACEMENT3D(#1093,#925,#940);
#1095=IFCEXTRUDEDAREASOLID(#1092,#1094,#904,25.000000000005599);
#1096=IFCCARTESIANPOINT((0.,0.));
#1097=IFCAXIS2PLACEMENT2D(#1096,#944);
#1098=IFCRECTANGLEPROFILEDEF(.AREA.,'_800x2000mm',#1097,51.,800.);
#1099=IFCCARTESIANPOINT((400.,73.500000000000696,0.));
#1100=IFCAXIS2PLACEMENT3D(#1099,#904,#925);
#1101=IFCEXTRUDEDAREASOLID(#1098,#1100,#904,2000.);
#1102=IFCSHAPEREPRESENTATION(#59,'Body','SweptSolid',(#1082,#1095,#1101));
#1103=IFCREPRESENTATIONMAP(#1069,#1102);
#1104=IFCMAPPEDITEM(#1103,#952);
#1105=IFCSHAPEREPRESENTATION(#59,'Body','MappedRepresentation',(#1104));
#1106=IFCPRODUCTDEFINITIONSHAPE($,$,(#1105));
#1107=IFCDOOR('3cDMTWgdr3igPBCsBF2w6L',#7,'M_Single-Flush:_800x2000mm:384449',$,'_800x2000mm',#1068,#1106,'384449',2000.,800.00000000000102);
#1108=IFCCARTESIANPOINT((3641.,-49.499999999999602,0.));
#1109=IFCAXIS2PLACEMENT3D(#1108,$,$);
#1110=IFCLOCALPLACEMENT(#1063,#1109);
#1111=IFCAXIS2PLACEMENT3D(#8,$,$);
#1112=IFCLOCALPLACEMENT(#1110,#1111);
#1113=IFCMAPPEDITEM(#1103,#952);
#1114=IFCSHAPEREPRESENTATION(#59,'Body','MappedRepresentation',(#1113));
#1115=IFCPRODUCTDEFINITIONSHAPE($,$,(#1114));
#1116=IFCDOOR('3cDMTWgdr3igPBCsBF2w6N',#7,'M_Single-Flush:_800x2000mm:384451',$,'_800x2000mm',#1112,#1115,'384451',2000.,800.00000000000102);
ENDSEC;
END-ISO-10303-21;
